<svg width="807" height="161" viewBox="0 0 807 161" fill="none" xmlns="http://www.w3.org/2000/svg">
<g clip-path="url(#clip0_637_57)">
<path d="M807 141.967H0.0239258V147.799H807V141.967Z" fill="#F68938"/>
<path d="M807 155.192H0.0239258V161.024H807V155.192Z" fill="black"/>
<path d="M159.166 122.046L156.074 117.366V50.1145L159.166 44.6902H128.507L130.832 50.1145V117.366L128.507 122.046H159.166Z" fill="black"/>
<path d="M200.324 122.046L197.591 113.478V29.1374L199.533 23.7131H169.258L171.99 29.1374V113.478L170.049 122.046H200.324Z" fill="black"/>
<path d="M241.841 122.022C241.074 117.75 239.899 113.478 239.444 108.821V12.8166C239.986 8.50029 240.787 4.2204 241.841 0H211.566C212.632 4.21786 213.432 8.49846 213.963 12.8166V108.821C213.395 113.261 212.595 117.667 211.566 122.022H241.841Z" fill="black"/>
<path d="M82.6753 122.046L85.7915 117.366V50.1145L82.6753 44.6902H113.334L111.009 50.1145V117.366L113.334 122.046H82.6753Z" fill="#F68938"/>
<path d="M41.5413 122.046L44.25 113.478V29.1374L42.3083 23.7131H72.5834L69.8747 29.1374V113.478L71.8163 122.046H41.5413Z" fill="#F68938"/>
<path d="M0 122.022C0.767065 117.75 1.94163 113.478 2.39708 108.821V12.8166C1.85463 8.50029 1.05417 4.2204 0 0H30.2751C29.2093 4.21786 28.4087 8.49846 27.878 12.8166V108.821C28.4458 113.261 29.2459 117.667 30.2751 122.022H0Z" fill="#F68938"/>
<path d="M699.467 53.7386H680.458C681.355 50.3177 681.75 46.7847 681.633 43.25C680.866 30.8174 671.158 24.1931 659.124 24.1931C658.717 23.425 658.717 23.425 657.95 23.425L634.65 24.1931V29.6414H643.591C640.092 33.1455 636.999 36.6257 636.999 43.25C636.208 47.5222 638.15 51.4104 638.15 53.7386H612.046V24.1931H605.454V31.2014C601.86 26.6092 596.296 24.0064 590.472 24.1931C580.356 24.1931 569.498 30.8174 568.731 43.25C568.323 58.0108 576.497 59.5708 579.206 59.5708H697.981C704.98 59.5708 703.398 54.9146 704.98 47.1382C708.073 38.5698 725.547 41.69 720.873 55.2986C720.106 58.3948 718.476 58.3948 716.606 58.0108L707.641 51.6985L706.85 58.2988L716.942 64.5151C720.058 66.0752 728.592 60.2429 727.441 48.1943C724.325 30.8174 698.34 33.1455 699.467 53.7386ZM603.584 53.7386H579.134C574.076 51.7945 573.693 47.1382 574.867 40.5379C576.425 33.9136 583.401 30.0254 590.4 30.0254C596.948 30.0855 602.73 34.3123 604.783 40.5379C606.724 47.1382 606.724 52.9705 603.608 53.7386H603.584ZM671.134 53.7386H647.163C642.489 51.7945 641.722 47.1382 642.872 40.5379C644.838 33.9136 652.197 29.6414 659.196 29.6414C665.788 29.6414 673.938 33.9136 675.496 40.5379C676.575 47.1382 676.192 51.6985 671.158 53.7386H671.134Z" fill="black"/>
<path d="M792.642 34.2976H765.459C763.738 34.2976 762.343 35.6945 762.343 37.4177C762.343 39.141 763.738 40.5379 765.459 40.5379H789.43C799.018 40.9219 799.018 53.7386 789.43 53.7386C775.455 53.7386 759.154 52.9705 745.203 52.9705V2.83203H738.588V59.5709H792.546C808.175 59.5709 805.058 34.2976 792.642 34.2976Z" fill="black"/>
<path d="M785.642 62.667C783.307 62.9314 781.6 65.0009 781.783 67.3472C781.783 69.4853 783.507 71.2222 785.642 71.2354C787.694 71.0604 789.306 69.4049 789.429 67.3472C789.481 65.0695 787.878 63.0892 785.642 62.667Z" fill="black"/>
<path d="M594.691 16.0328C595.635 16.0983 596.562 15.7493 597.229 15.0766C597.896 14.4039 598.239 13.474 598.167 12.5286C598.239 11.5852 597.897 10.657 597.228 9.98785C596.56 9.31873 595.633 8.97555 594.691 9.04846C592.294 9.04846 590.424 10.2005 590.424 12.5286C590.424 14.8567 592.342 16.0328 594.691 16.0328Z" fill="black"/>
<path d="M497.633 62.667C495.692 62.667 494.157 65.0671 494.157 67.3472C494.112 69.3578 495.632 71.0589 497.633 71.2354C499.857 71.2569 501.724 69.5648 501.924 67.3472C501.877 64.9271 500.037 62.9207 497.633 62.667Z" fill="black"/>
<path d="M525.967 52.9705H497.633V33.1455H491.425V52.9705H463.858V48.1703C460.766 30.6974 435.093 33.0255 435.932 53.6186H401.103V2.83203H394.391L394.775 59.5709H434.662C442.429 59.5709 440.103 54.9146 442.429 47.1382C444.826 38.5698 461.461 41.69 457.171 55.2986C456.404 58.3948 454.774 58.3948 453.287 58.0108L444.466 51.6985L443.675 58.2988L454.174 64.5151C455.325 65.6912 459.592 63.363 461.941 59.4748H532.583V2.83203H525.967V52.9705Z" fill="black"/>
<path d="M541.116 59.5708H546.941V2.83203H540.325L541.116 59.5708Z" fill="black"/>
<path d="M585.678 16.0328C586.993 16.142 588.258 15.5013 588.949 14.3757C589.64 13.2501 589.64 11.831 588.949 10.7054C588.258 9.57985 586.993 8.93916 585.678 9.04842C583.281 9.04842 581.411 10.2005 581.411 12.5286C581.411 14.8567 583.425 16.0328 585.678 16.0328Z" fill="black"/>
<path d="M489.1 62.667C486.705 62.9319 484.879 64.9353 484.833 67.3472C485.021 69.5611 486.881 71.256 489.1 71.2354C491.184 71.0958 492.844 69.4341 492.983 67.3472C492.968 65.0601 491.343 63.1015 489.1 62.667Z" fill="black"/>
<path d="M360.616 53.7386H324.516V24.1931H318.308V31.2015C314.684 26.5673 309.056 23.9598 303.182 24.1931C293.091 24.1931 282.208 30.8175 281.441 43.2501C281.057 58.0108 289.591 59.5709 291.916 59.5709H358.675C366.441 59.5709 364.883 54.9147 366.441 47.1383C369.15 38.5699 386.625 41.69 382.358 55.2987C381.183 58.3948 379.266 58.3948 378.091 58.0108L368.383 51.6985L367.544 58.3948L378.403 64.6111C381.519 66.1712 390.053 60.3389 388.111 48.2903C385.091 30.8175 359.466 33.1456 360.616 53.7386ZM316.366 53.7386H291.916C286.858 51.7945 286.475 47.1383 287.649 40.538C289.591 33.9136 296.591 30.0254 303.182 30.0254C309.786 30.1664 315.632 34.3354 317.925 40.538C319.602 47.1383 320.25 52.9706 316.366 53.7386Z" fill="black"/>
<path d="M306.275 16.0326C307.239 16.171 308.211 15.8466 308.9 15.1571C309.589 14.4676 309.913 13.4936 309.774 12.5284C309.915 11.5648 309.591 10.5916 308.9 9.90533C308.21 9.2191 307.236 8.9011 306.275 9.04824C305.134 9.01725 304.026 9.43019 303.182 10.2003C302.775 10.5843 302.775 12.1444 302.775 12.6004C302.712 13.2825 302.854 13.9679 303.182 14.5685C303.892 15.5583 305.061 16.1118 306.275 16.0326Z" fill="black"/>
<path d="M297.357 16.0328C299.755 16.0328 301.624 14.8807 301.624 12.5286C301.624 10.1765 299.683 9.04842 297.357 9.04842C296.042 8.93916 294.778 9.57985 294.087 10.7054C293.396 11.831 293.396 13.2501 294.087 14.3757C294.778 15.5013 296.042 16.142 297.357 16.0328Z" fill="black"/>
<path d="M718.884 99.9888C717.733 100.757 716.942 102.701 715.791 104.261V99.7008H710.326V123.702H715.767V110.477C715.737 108.609 716.433 106.801 717.709 105.437C718.821 104.296 720.391 103.722 721.976 103.877C722.474 104.051 722.988 104.18 723.51 104.261L725.475 98.8127H723.078C721.233 98.8127 720.058 98.8127 718.884 99.9888Z" fill="black"/>
<path d="M736.358 103.109C737.076 103.128 737.763 103.4 738.3 103.877C739.474 104.261 739.858 105.029 740.697 105.437L744.197 102.701C742.221 100.431 739.43 99.0333 736.43 98.8128C734.435 98.7385 732.487 99.4345 730.989 100.757C729.343 101.771 728.414 103.631 728.592 105.557C728.503 107.072 728.915 108.574 729.766 109.829C731.517 111.406 733.663 112.476 735.975 112.925C738.683 114.87 739.858 116.046 739.858 117.198C739.7 117.961 739.285 118.647 738.683 119.142C738 119.917 737.007 120.348 735.975 120.318C734.217 120.104 732.649 119.108 731.708 117.606L727.441 119.55C729.227 122.592 732.452 124.497 735.975 124.59C738.068 124.544 740.098 123.866 741.8 122.646C743.379 121.285 744.26 119.283 744.197 117.198C744.314 115.438 743.905 113.683 743.022 112.157C741.476 110.725 739.57 109.738 737.509 109.301C734.417 108.125 732.859 106.565 732.859 105.413C732.859 104.261 734.033 103.109 736.358 103.109Z" fill="black"/>
<path d="M753.809 99.6047H749.159V123.702H753.809V99.6047Z" fill="black"/>
<path d="M767.017 92.2124H762.75V99.6048H758.1V104.261H762.75V123.702H767.017V104.261H772.458V99.6048H767.017V92.2124Z" fill="black"/>
<path d="M797.292 99.6047L791.083 112.037L782.166 99.6047H776.725L788.758 117.486L780.992 134.982H785.642L802.733 99.6047H797.292Z" fill="black"/>
<path d="M705.7 112.037C705.789 108.588 704.534 105.239 702.2 102.701C699.815 100.093 696.404 98.6701 692.875 98.8128C689.518 98.8631 686.32 100.252 683.989 102.671C681.659 105.091 680.388 108.341 680.458 111.701C680.382 115.013 681.644 118.215 683.958 120.582C686.38 122.889 689.538 124.266 692.875 124.47C697.393 124.567 701.7 122.553 704.525 119.022L700.738 116.31C699.446 118.932 696.668 120.48 693.762 120.198H692.971C691.253 120.066 689.622 119.385 688.321 118.254C686.743 116.5 685.666 114.352 685.205 112.037H705.795H705.7ZM692.875 103.877C696.782 103.877 699.467 105.029 700.258 108.533H685.876C686.806 105.512 689.733 103.565 692.875 103.877Z" fill="black"/>
<path d="M555.475 98.8127C553.829 98.5364 552.142 98.963 550.824 99.9888C549.429 100.896 548.128 101.941 546.941 103.109V85.6121H541.5V123.702H546.941V110.477C546.91 108.609 547.607 106.801 548.883 105.437C549.984 103.966 551.698 103.081 553.533 103.037C554.676 103.037 555.781 103.445 556.649 104.189C557.428 105.333 557.83 106.693 557.8 108.077V123.702H563.241V106.589C563.106 104.548 562.257 102.619 560.844 101.141C559.387 99.7519 557.484 98.9268 555.475 98.8127Z" fill="black"/>
<path d="M606.724 110.477C606.952 113.048 606.081 115.594 604.327 117.486C602.372 119.399 599.695 120.385 596.968 120.198C594.384 120.346 591.902 119.171 590.376 117.078C588.801 114.797 587.995 112.073 588.075 109.301V86.3801H582.658V108.533C582.658 113.981 583.808 118.134 586.925 120.534C589.322 123.654 592.749 124.806 597.783 124.806C601.647 125.149 605.429 123.548 607.875 120.534C610.675 117.642 612.181 113.735 612.046 109.709V86.3801H606.628L606.724 110.477Z" fill="black"/>
<path d="M629.616 98.8129C628.332 98.6532 627.045 99.0858 626.117 99.9889C624.417 100.943 622.958 102.273 621.85 103.877V99.7009H617.199V123.702H621.85V110.477C621.804 108.512 622.694 106.641 624.247 105.437C625.064 103.857 626.741 102.914 628.514 103.037C629.625 103.185 630.689 103.578 631.63 104.189C632.293 105.385 632.686 106.713 632.78 108.077V123.702H638.222V106.205C637.939 104.203 637.109 102.318 635.825 100.757C633.974 99.5483 631.825 98.8755 629.616 98.8129Z" fill="black"/>
<path d="M648.266 99.6047H643.591V123.702H648.266V99.6047Z" fill="black"/>
<path d="M665.333 112.829L658.741 99.6047H653.3L665.333 124.854L677.75 99.6047H672.308L665.333 112.829Z" fill="black"/>
<path d="M532.199 104.261C530.874 102.742 529.449 101.315 527.932 99.9888C526.758 99.6048 525.967 98.8127 524.816 98.8127H522.419C519.274 98.8636 516.308 100.283 514.293 102.701C510.862 106.275 509.782 111.502 511.515 116.146C513.248 120.789 517.488 124.026 522.419 124.47H524.816C527.65 123.225 530.172 121.364 532.199 119.022V123.822H536.849V99.7008H532.199V104.261ZM530.257 117.486C528.802 118.979 526.884 119.935 524.816 120.198C522.479 120.052 520.266 119.092 518.56 117.486C516.986 115.959 516.118 113.846 516.163 111.653C516.04 109.557 516.932 107.529 518.56 106.205C520.17 104.521 522.445 103.642 524.768 103.805C526.852 103.735 528.855 104.618 530.209 106.205C531.979 107.417 532.908 109.529 532.607 111.653C532.845 113.868 531.964 116.056 530.257 117.486Z" fill="black"/>
<path d="M498.808 98.8128C497.287 98.6404 495.759 99.0616 494.541 99.9889C493.093 101 491.896 102.33 491.041 103.877C490.274 101.933 489.867 100.757 488.644 99.9889C487.448 99.0174 485.901 98.591 484.377 98.8128C482.928 98.6607 481.468 98.9716 480.206 99.7009C479.271 100.957 478.228 102.129 477.09 103.205V99.7009H471.673V123.702H477.09V109.709C477.279 108.066 477.673 106.453 478.265 104.909C479.336 103.672 480.897 102.97 482.532 102.989C484.929 102.989 486.007 104.909 486.007 108.029V123.702H491.449V110.477C491.438 108.612 492.131 106.812 493.39 105.437C494.078 104.097 495.394 103.195 496.89 103.037C498.04 102.974 499.162 103.404 499.976 104.219C500.791 105.034 501.22 106.158 501.157 107.309V123.702H506.191V106.205C506.077 104.244 505.413 102.356 504.273 100.757C502.669 99.6091 500.775 98.9355 498.808 98.8128Z" fill="black"/>
<path d="M461.557 104.261C460.435 102.557 458.975 101.103 457.267 99.9887C456.279 99.4923 455.242 99.0982 454.174 98.8127H452.233C449.173 98.7935 446.287 100.238 444.466 102.701C441.988 105.012 440.58 108.25 440.58 111.641C440.58 115.032 441.988 118.271 444.466 120.582C446.287 123.045 449.173 124.489 452.233 124.47H454.174C457.064 123.323 459.607 121.446 461.557 119.022V123.822H466.184V99.7007H461.557V104.261ZM459.592 117.486C458.148 118.982 456.236 119.939 454.174 120.198C452.06 120.103 450.084 119.118 448.733 117.486C446.948 116.108 445.932 113.957 446 111.701C445.837 109.519 446.888 107.425 448.733 106.253C450.04 104.603 452.076 103.705 454.174 103.853C456.252 103.78 458.249 104.664 459.592 106.253C461.366 107.461 462.296 109.576 461.989 111.701C462.208 113.91 461.308 116.081 459.592 117.486Z" fill="black"/>
<path d="M429.317 98.8127C427.375 98.8127 426.224 98.8127 425.074 99.9888C423.618 100.998 422.412 102.328 421.55 103.877C420.94 102.399 420.015 101.073 418.841 99.9888C417.524 98.963 415.837 98.5365 414.191 98.8127C412.959 98.7216 411.731 99.0332 410.691 99.7008C409.479 100.956 408.181 102.127 406.808 103.205V99.7008H402.158V123.702H406.808V109.709C406.921 107.941 407.602 106.257 408.75 104.909C409.825 103.677 411.383 102.976 413.016 102.989C415.414 102.989 416.516 104.909 416.516 108.029V123.702H421.958V110.477C422.068 108.746 422.456 107.044 423.108 105.437C424.181 104.131 425.703 103.275 427.375 103.037C428.468 103.053 429.505 103.522 430.24 104.331C430.976 105.14 431.344 106.218 431.258 107.309V123.702H436.7V106.205C436.626 104.082 435.638 102.095 433.991 100.757C432.756 99.5073 431.072 98.8068 429.317 98.8127Z" fill="black"/>
<path d="M375.766 86.3801H373.057H369.557L360.616 101.165L351.699 86.3801H345.491L358.291 106.589V123.702H362.941V106.589L373.057 89.8843L375.766 86.3801Z" fill="black"/>
<path d="M392.066 104.261C390.741 102.742 389.316 101.315 387.799 99.9888C386.564 99.4226 385.258 99.0269 383.916 98.8127H382.358C379.261 98.6254 376.3 100.108 374.591 102.701C374.028 103.03 373.505 103.425 373.033 103.877C369.936 108.597 369.936 114.709 373.033 119.43C373.033 120.198 373.824 120.198 373.824 120.582C376.057 122.938 379.117 124.333 382.358 124.47H383.916C387.09 123.456 389.914 121.568 392.066 119.022V123.822H396.716V99.7008H392.066V104.261ZM390.124 117.486C388.472 119.143 386.254 120.112 383.916 120.198C381.801 120.103 379.825 119.118 378.475 117.486C376.901 115.959 376.033 113.846 376.078 111.653C375.955 109.557 376.847 107.529 378.475 106.205C379.825 104.612 381.831 103.728 383.916 103.805C386.248 103.577 388.551 104.467 390.124 106.205C391.597 107.643 392.456 109.595 392.522 111.653C392.376 113.807 391.535 115.854 390.124 117.486Z" fill="black"/>
<path d="M281.057 123.702H286.475L291.149 114.102H307.066L311.716 123.702H317.205L298.964 84.436L281.057 123.702ZM298.916 109.709H293.091L298.916 96.4846L305.22 109.709H298.916Z" fill="black"/>
<path d="M326.841 85.6121H321.808V123.702H326.841V85.6121Z" fill="black"/>
<path d="M645.605 87.3162C644.09 87.3163 642.725 88.2311 642.148 89.6332C641.571 91.0352 641.895 92.6475 642.969 93.7165C644.044 94.7854 645.656 95.0998 647.053 94.5127C648.449 93.9256 649.354 92.553 649.344 91.0364C649.344 90.0456 648.95 89.0957 648.248 88.3973C647.546 87.699 646.594 87.3098 645.605 87.3162Z" fill="black"/>
<path d="M751.891 87.3162C750.377 87.3163 749.012 88.2311 748.434 89.6332C747.857 91.0352 748.181 92.6475 749.256 93.7165C750.33 94.7854 751.942 95.0998 753.339 94.5127C754.736 93.9256 755.64 92.553 755.631 91.0364C755.631 90.0456 755.236 89.0957 754.534 88.3973C753.832 87.699 752.881 87.3098 751.891 87.3162Z" fill="black"/>
</g>
<defs>
<clipPath id="clip0_637_57">
<rect width="807" height="161" fill="white"/>
</clipPath>
</defs>
</svg>
